<svg width="35" height="35" viewBox="0 0 35 35" fill="none" xmlns="http://www.w3.org/2000/svg">
<path d="M29.05 1H5.95C3.145 1 1 3.145 1 5.95V29.05C1 31.855 3.145 34 5.95 34H29.05C31.855 34 34 31.855 34 29.05V5.95C34 3.145 31.855 1 29.05 1Z" stroke="#339989" stroke-width="2"/>
<path d="M9.64998 26.8C10.64 26.8 11.3 26.14 11.3 25.15V18.55C11.3 17.56 10.64 16.9 9.64998 16.9C8.65998 16.9 7.99998 17.56 7.99998 18.55V25.15C7.99998 26.14 8.65998 26.8 9.64998 26.8Z" stroke="#339989" stroke-width="2"/>
<path d="M17.9 26.8C18.89 26.8 19.55 26.14 19.55 25.15V8.65C19.55 7.66 18.89 7 17.9 7C16.91 7 16.25 7.66 16.25 8.65V25.15C16.25 26.14 16.91 26.8 17.9 26.8Z" stroke="#339989" stroke-width="2"/>
<path d="M26.15 26.8C27.14 26.8 27.8 26.14 27.8 25.15V15.25C27.8 14.26 27.14 13.6 26.15 13.6C25.16 13.6 24.5 14.26 24.5 15.25V25.15C24.5 26.14 25.16 26.8 26.15 26.8Z" stroke="#339989" stroke-width="2"/>
</svg>
