<svg width="25" height="26" viewBox="0 0 25 26" fill="none" xmlns="http://www.w3.org/2000/svg">
<path d="M1 6.33333H24M9.625 11.6667V19.6667M15.375 11.6667V19.6667M2.4375 6.33333L3.875 22.3333C3.875 23.0406 4.1779 23.7189 4.71707 24.219C5.25623 24.719 5.9875 25 6.75 25H18.25C19.0125 25 19.7438 24.719 20.2829 24.219C20.8221 23.7189 21.125 23.0406 21.125 22.3333L22.5625 6.33333M8.1875 6.33333V2.33333C8.1875 1.97971 8.33895 1.64057 8.60853 1.39052C8.87812 1.14048 9.24375 1 9.625 1H15.375C15.7562 1 16.1219 1.14048 16.3915 1.39052C16.661 1.64057 16.8125 1.97971 16.8125 2.33333V6.33333" stroke="#339989" stroke-width="2" stroke-linecap="round" stroke-linejoin="round"/>
</svg>
