<svg width="40" height="35" viewBox="0 0 40 35" fill="none" xmlns="http://www.w3.org/2000/svg">
<mask id="path-1-inside-1_38_44" fill="white">
<path d="M20.5508 20.2996C21.8936 20.439 23.1376 21.078 24.0421 22.0929C24.9466 23.1078 25.4474 24.4265 25.4476 25.7938C25.4476 28.633 23.739 30.9824 21.4414 32.5327C19.133 34.0941 16.0429 35 12.7238 35C9.40471 35 6.31464 34.0941 4.00618 32.5327C1.70499 30.9861 0 28.633 0 25.7938C0 24.3288 0.574517 22.9239 1.59716 21.888C2.61981 20.8521 4.00682 20.2701 5.45306 20.2701H19.9945L20.5508 20.2996ZM34.5469 20.2701C35.9932 20.2701 37.3802 20.8521 38.4028 21.888C39.4255 22.9239 40 24.3288 40 25.7938C40 28.3531 38.4295 30.2533 36.4264 31.4206C34.4342 32.5806 31.8277 33.1588 29.0939 33.1588C28.1729 33.1563 27.275 33.0876 26.4001 32.9525C27.9742 31.0671 29.0866 28.6588 29.0866 25.7938C29.0824 23.8002 28.4395 21.8618 27.2544 20.2701H34.5469ZM12.7311 0.00176378C13.8209 -0.0210034 14.9043 0.176841 15.9178 0.5837C16.9312 0.990559 17.8542 1.59825 18.6328 2.37114C19.4113 3.14404 20.0298 4.06659 20.4518 5.08471C20.8738 6.10284 21.0909 7.19607 21.0904 8.3003C21.09 9.40453 20.8719 10.4976 20.449 11.5153C20.026 12.5331 19.4068 13.455 18.6276 14.2272C17.8483 14.9994 16.9248 15.6063 15.911 16.0122C14.8972 16.4182 13.8137 16.6151 12.7238 16.5913C10.5819 16.5456 8.54295 15.6516 7.04411 14.101C5.54527 12.5504 4.70586 10.4667 4.70586 8.29654C4.70586 6.12641 5.54527 4.04266 7.04411 2.49207C8.54295 0.941476 10.5819 0.0474811 12.7238 0.00176378M29.9918 3.68792C30.8273 3.68792 31.6546 3.85461 32.4264 4.17847C33.1983 4.50232 33.8996 4.97701 34.4904 5.57542C35.0811 6.17383 35.5497 6.88425 35.8694 7.66611C36.1892 8.44797 36.3537 9.28597 36.3537 10.1323C36.3537 10.9785 36.1892 11.8165 35.8694 12.5984C35.5497 13.3803 35.0811 14.0907 34.4904 14.6891C33.8996 15.2875 33.1983 15.7622 32.4264 16.086C31.6546 16.4099 30.8273 16.5766 29.9918 16.5766C28.3045 16.5766 26.6864 15.8976 25.4933 14.6891C24.3002 13.4805 23.6299 11.8414 23.6299 10.1323C23.6299 8.42311 24.3002 6.78397 25.4933 5.57542C26.6864 4.36688 28.3045 3.68792 29.9918 3.68792Z"/>
</mask>
<path d="M20.5508 20.2996L20.7574 18.3103L20.7071 18.305L20.6565 18.3024L20.5508 20.2996ZM25.4476 25.7938H27.4476V25.7936L25.4476 25.7938ZM21.4414 32.5327L20.3227 30.8749L20.3209 30.8761L21.4414 32.5327ZM4.00618 32.5327L5.12669 30.8761L5.12182 30.8728L4.00618 32.5327ZM0 25.7938H-2H0ZM5.45306 20.2701V18.2701V20.2701ZM19.9945 20.2701L20.1003 18.2729L20.0475 18.2701H19.9945V20.2701ZM40 25.7938H42H40ZM36.4264 31.4206L37.4328 33.149L37.4334 33.1486L36.4264 31.4206ZM29.0939 33.1588L29.0886 35.1588H29.0939V33.1588ZM26.4001 32.9525L24.8648 31.6708L22.5954 34.389L26.095 34.9291L26.4001 32.9525ZM29.0866 25.7938H31.0866L31.0866 25.7896L29.0866 25.7938ZM27.2544 20.2701V18.2701H23.2719L25.6502 21.4645L27.2544 20.2701ZM12.7238 16.5913L12.7674 14.5918L12.7665 14.5918L12.7238 16.5913ZM29.9918 3.68792V5.68792V3.68792ZM29.9918 16.5766V14.5766V16.5766ZM23.6299 10.1323H25.6299H23.6299ZM20.5508 20.2996L20.3441 22.2889C21.1872 22.3764 21.9736 22.778 22.549 23.4236L24.0421 22.0929L25.5352 20.7622C24.3015 19.378 22.5999 18.5016 20.7574 18.3103L20.5508 20.2996ZM24.0421 22.0929L22.549 23.4236C23.1251 24.0699 23.4475 24.9143 23.4476 25.794L25.4476 25.7938L27.4476 25.7936C27.4474 23.9387 26.7682 22.1457 25.5352 20.7622L24.0421 22.0929ZM25.4476 25.7938H23.4476C23.4476 27.7638 22.2636 29.5652 20.3227 30.8749L21.4414 32.5327L22.5601 34.1906C25.2143 32.3996 27.4476 29.5022 27.4476 25.7938H25.4476ZM21.4414 32.5327L20.3209 30.8761C18.386 32.1848 15.6984 33 12.7238 33V35V37C16.3874 37 19.8799 36.0034 22.5619 34.1894L21.4414 32.5327ZM12.7238 35V33C9.74924 33 7.0616 32.1848 5.12668 30.8761L4.00618 32.5327L2.88568 34.1894C5.56769 36.0034 9.06018 37 12.7238 37V35ZM4.00618 32.5327L5.12182 30.8728C3.18269 29.5695 2 27.766 2 25.7938H0H-2C-2 29.5 0.227287 32.4027 2.89054 34.1927L4.00618 32.5327ZM0 25.7938H2C2 24.851 2.36998 23.9519 3.02045 23.293L1.59716 21.888L0.173877 20.4829C-1.22094 21.8958 -2 23.8067 -2 25.7938H0ZM1.59716 21.888L3.02045 23.293C3.67006 22.635 4.54562 22.2701 5.45306 22.2701V20.2701V18.2701C3.46802 18.2701 1.56956 19.0691 0.173877 20.4829L1.59716 21.888ZM5.45306 20.2701V22.2701H19.9945V20.2701V18.2701H5.45306V20.2701ZM19.9945 20.2701L19.8888 22.2673L20.445 22.2968L20.5508 20.2996L20.6565 18.3024L20.1003 18.2729L19.9945 20.2701ZM34.5469 20.2701V22.2701C35.4544 22.2701 36.3299 22.635 36.9795 23.293L38.4028 21.888L39.8261 20.4829C38.4304 19.0691 36.532 18.2701 34.5469 18.2701V20.2701ZM38.4028 21.888L36.9795 23.293C37.63 23.9519 38 24.851 38 25.7938H40H42C42 23.8067 41.2209 21.8958 39.8261 20.4829L38.4028 21.888ZM40 25.7938H38C38 27.4183 37.0286 28.7549 35.4194 29.6927L36.4264 31.4206L37.4334 33.1486C39.8305 31.7517 42 29.288 42 25.7938H40ZM36.4264 31.4206L35.4201 29.6923C33.8109 30.6293 31.576 31.1588 29.0939 31.1588V33.1588V35.1588C32.0793 35.1588 35.0576 34.532 37.4328 33.149L36.4264 31.4206ZM29.0939 33.1588L29.0992 31.1588C28.2746 31.1566 27.477 31.0951 26.7051 30.9759L26.4001 32.9525L26.095 34.9291C27.073 35.0801 28.0713 35.156 29.0886 35.1588L29.0939 33.1588ZM26.4001 32.9525L27.9353 34.2343C29.7526 32.0577 31.0866 29.2093 31.0866 25.7938H29.0866H27.0866C27.0866 28.1083 26.1958 30.0766 24.8648 31.6708L26.4001 32.9525ZM29.0866 25.7938L31.0866 25.7896C31.0815 23.3692 30.3011 21.0132 28.8586 19.0757L27.2544 20.2701L25.6502 21.4645C26.5778 22.7104 27.0833 24.2311 27.0866 25.798L29.0866 25.7938ZM27.2544 20.2701V22.2701H34.5469V20.2701V18.2701H27.2544V20.2701ZM12.7311 0.00176378L12.7728 2.00133C13.5929 1.9842 14.4087 2.13302 15.1726 2.43971L15.9178 0.5837L16.6629 -1.27231C15.4 -1.77934 14.049 -2.0262 12.6893 -1.9978L12.7311 0.00176378ZM15.9178 0.5837L15.1726 2.43971C15.9366 2.74642 16.6342 3.20521 17.2237 3.79051L18.6328 2.37114L20.0418 0.951772C19.0743 -0.0087187 17.9258 -0.765303 16.6629 -1.27231L15.9178 0.5837ZM18.6328 2.37114L17.2237 3.79051C17.8134 4.37586 18.2831 5.07599 18.6042 5.85054L20.4518 5.08471L22.2993 4.31889C21.7764 3.05718 21.0093 1.91221 20.0418 0.951772L18.6328 2.37114ZM20.4518 5.08471L18.6042 5.85054C18.9253 6.62514 19.0908 7.45778 19.0904 8.29942L21.0904 8.3003L23.0904 8.30118C23.091 6.93435 22.8223 5.58055 22.2993 4.31889L20.4518 5.08471ZM21.0904 8.3003L19.0904 8.29942C19.0901 9.14107 18.9238 9.97355 18.6021 10.7479L20.449 11.5153L22.2958 12.2828C22.8199 11.0216 23.0898 9.668 23.0904 8.30118L21.0904 8.3003ZM20.449 11.5153L18.6021 10.7479C18.2803 11.5221 17.81 12.2218 17.2198 12.8066L18.6276 14.2272L20.0354 15.6479C21.0037 14.6883 21.7718 13.544 22.2958 12.2828L20.449 11.5153ZM18.6276 14.2272L17.2198 12.8066C16.6297 13.3914 15.9318 13.8495 15.1675 14.1556L15.911 16.0122L16.6545 17.8689C17.9178 17.363 19.067 16.6075 20.0354 15.6479L18.6276 14.2272ZM15.911 16.0122L15.1675 14.1556C14.4034 14.4616 13.5875 14.6097 12.7674 14.5918L12.7238 16.5913L12.6802 18.5908C14.0399 18.6205 15.3911 18.3748 16.6545 17.8689L15.911 16.0122ZM12.7238 16.5913L12.7665 14.5918C11.1558 14.5574 9.61714 13.8852 8.48211 12.711L7.04411 14.101L5.6061 15.491C7.46877 17.418 10.008 18.5338 12.6811 18.5909L12.7238 16.5913ZM7.04411 14.101L8.48211 12.711C7.34628 11.5359 6.70586 9.95163 6.70586 8.29654H4.70586H2.70586C2.70586 10.9817 3.74425 13.5649 5.6061 15.491L7.04411 14.101ZM4.70586 8.29654H6.70586C6.70586 6.64145 7.34628 5.05713 8.48211 3.88208L7.04411 2.49207L5.6061 1.10205C3.74425 3.02819 2.70586 5.61137 2.70586 8.29654H4.70586ZM7.04411 2.49207L8.48211 3.88208C9.61714 2.70787 11.1558 2.03569 12.7665 2.00131L12.7238 0.00176378L12.6811 -1.99778C10.008 -1.94073 7.46877 -0.824918 5.6061 1.10205L7.04411 2.49207ZM29.9918 3.68792V5.68792C30.561 5.68792 31.1253 5.80146 31.6526 6.02271L32.4264 4.17847L33.2002 2.33423C32.1838 1.90776 31.0935 1.68792 29.9918 1.68792L29.9918 3.68792ZM32.4264 4.17847L31.6526 6.02271C32.18 6.24398 32.6608 6.56901 33.0671 6.9805L34.4904 5.57542L35.9137 4.17034C35.1384 3.38501 34.2166 2.76067 33.2002 2.33423L32.4264 4.17847ZM34.4904 5.57542L33.0671 6.9805C33.4734 7.39205 33.797 7.88202 34.0182 8.4231L35.8694 7.66611L37.7207 6.90912C37.3025 5.88648 36.6889 4.95562 35.9137 4.17034L34.4904 5.57542ZM35.8694 7.66611L34.0182 8.4231C34.2395 8.96422 34.3537 9.54507 34.3537 10.1323H36.3537H38.3537C38.3537 9.02687 38.1388 7.93173 37.7207 6.90912L35.8694 7.66611ZM36.3537 10.1323H34.3537C34.3537 10.7194 34.2395 11.3003 34.0182 11.8414L35.8694 12.5984L37.7207 13.3554C38.1388 12.3328 38.3537 11.2376 38.3537 10.1323H36.3537ZM35.8694 12.5984L34.0182 11.8414C33.797 12.3825 33.4734 12.8725 33.0671 13.284L34.4904 14.6891L35.9137 16.0942C36.6889 15.3089 37.3025 14.378 37.7207 13.3554L35.8694 12.5984ZM34.4904 14.6891L33.0671 13.284C32.6609 13.6955 32.18 14.0205 31.6526 14.2418L32.4264 16.086L33.2002 17.9303C34.2166 17.5038 35.1384 16.8795 35.9137 16.0942L34.4904 14.6891ZM32.4264 16.086L31.6526 14.2418C31.1253 14.463 30.561 14.5766 29.9918 14.5766V16.5766L29.9918 18.5766C31.0935 18.5766 32.1838 18.3567 33.2002 17.9303L32.4264 16.086ZM29.9918 16.5766V14.5766C28.8433 14.5766 27.7366 14.1147 26.9166 13.284L25.4933 14.6891L24.07 16.0942C25.6361 17.6806 27.7657 18.5766 29.9918 18.5766L29.9918 16.5766ZM25.4933 14.6891L26.9166 13.284C26.0956 12.4524 25.6299 11.3192 25.6299 10.1323H23.6299H21.6299C21.6299 12.3636 22.5047 14.5086 24.07 16.0942L25.4933 14.6891ZM23.6299 10.1323H25.6299C25.6299 8.94529 26.0956 7.81206 26.9166 6.9805L25.4933 5.57542L24.07 4.17034C22.5047 5.75588 21.6299 7.90093 21.6299 10.1323H23.6299ZM25.4933 5.57542L26.9166 6.9805C27.7366 6.14982 28.8433 5.68792 29.9918 5.68792V3.68792L29.9918 1.68792C27.7657 1.68792 25.6361 2.58393 24.07 4.17034L25.4933 5.57542Z" fill="#339989" mask="url(#path-1-inside-1_38_44)"/>
</svg>
