<svg width="351" height="126" viewBox="0 0 351 126" fill="none" xmlns="http://www.w3.org/2000/svg">
<g filter="url(#filter0_d_38_28)">
<g filter="url(#filter1_d_38_28)">
<path d="M291.486 105.649C290.81 105.649 290.257 105.434 289.827 105.003C289.397 104.573 289.181 104.02 289.181 103.344V42.4967C289.181 41.8207 289.397 41.2675 289.827 40.8373C290.257 40.407 290.81 40.1919 291.486 40.1919H301.904C302.519 40.1919 303.041 40.407 303.471 40.8373C303.963 41.2675 304.209 41.8207 304.209 42.4967V45.9079C305.623 44.0026 307.497 42.4353 309.833 41.206C312.168 39.9153 315.057 39.27 318.499 39.27C321.572 39.27 324.276 39.7617 326.612 40.7451C328.947 41.667 330.945 43.0499 332.604 44.8938C334.264 46.7376 335.555 48.981 336.476 51.6238C337.46 54.2667 338.013 57.3091 338.136 60.7509C338.197 61.9802 338.228 63.1172 338.228 64.1621C338.228 65.2069 338.197 66.344 338.136 67.5732C338.013 70.8921 337.491 73.873 336.569 76.5159C335.647 79.1588 334.356 81.4021 332.697 83.246C331.037 85.0898 329.009 86.5342 326.612 87.579C324.276 88.5624 321.572 89.0541 318.499 89.0541C315.487 89.0541 312.844 88.5317 310.57 87.4868C308.358 86.3805 306.514 84.844 305.039 82.8772V103.344C305.039 104.02 304.824 104.573 304.393 105.003C303.963 105.434 303.41 105.649 302.734 105.649H291.486ZM313.52 76.7003C315.61 76.7003 317.239 76.2701 318.407 75.4096C319.574 74.5491 320.404 73.3813 320.896 71.9063C321.449 70.4312 321.787 68.8024 321.91 67.02C322.033 65.1147 322.033 63.2094 321.91 61.3041C321.787 59.5217 321.449 57.8929 320.896 56.4179C320.404 54.9428 319.574 53.775 318.407 52.9145C317.239 52.0541 315.61 51.6238 313.52 51.6238C311.492 51.6238 309.863 52.0848 308.634 53.0067C307.405 53.8672 306.514 55.0042 305.961 56.4179C305.407 57.8315 305.1 59.368 305.039 61.0275C304.977 62.1953 304.946 63.3323 304.946 64.4386C304.946 65.545 304.977 66.7127 305.039 67.942C305.1 69.4785 305.438 70.9229 306.053 72.275C306.667 73.5657 307.589 74.6413 308.819 75.5018C310.048 76.3008 311.615 76.7003 313.52 76.7003Z" fill="#20E6C3"/>
</g>
<path d="M171.114 89.0541C170.437 89.0541 169.884 88.839 169.454 88.4088C169.024 87.9785 168.809 87.4254 168.809 86.7493V25.902C168.809 25.2259 169.024 24.6728 169.454 24.2426C169.884 23.8123 170.437 23.5972 171.114 23.5972H181.808C182.423 23.5972 182.945 23.8123 183.375 24.2426C183.867 24.6728 184.113 25.2259 184.113 25.902V56.7866L196.928 42.9884C197.296 42.5582 197.696 42.1894 198.126 41.8821C198.556 41.5748 199.171 41.4212 199.97 41.4212H212.324C212.877 41.4212 213.338 41.6363 213.707 42.0665C214.137 42.4353 214.352 42.8962 214.352 43.4494C214.352 43.6952 214.291 43.9718 214.168 44.2791C214.045 44.5864 213.86 44.8323 213.614 45.0167L197.02 62.5948L215.919 85.5508C216.411 86.0425 216.657 86.5342 216.657 87.0259C216.657 87.579 216.442 88.0707 216.011 88.501C215.643 88.8697 215.151 89.0541 214.536 89.0541H201.906C200.984 89.0541 200.308 88.9005 199.878 88.5932C199.447 88.2244 199.048 87.8556 198.679 87.4868L184.113 69.9702V86.7493C184.113 87.4254 183.867 87.9785 183.375 88.4088C182.945 88.839 182.423 89.0541 181.808 89.0541H171.114Z" fill="white"/>
<path d="M137.58 88.7468C133.585 88.7468 130.174 88.3166 127.346 87.4561C124.581 86.5342 122.306 85.4279 120.524 84.1372C118.803 82.8465 117.512 81.525 116.652 80.1729C115.792 78.7593 115.331 77.5607 115.269 76.5774C115.208 75.9013 115.423 75.3481 115.914 74.9179C116.406 74.4262 116.929 74.1803 117.482 74.1803H127.992C128.176 74.1803 128.33 74.2111 128.453 74.2725C128.576 74.334 128.76 74.4569 129.006 74.6413C129.805 75.0715 130.604 75.6247 131.403 76.3008C132.202 76.9154 133.124 77.4686 134.169 77.9602C135.213 78.4519 136.473 78.6978 137.949 78.6978C139.669 78.6978 141.114 78.3597 142.282 77.6837C143.449 77.0076 144.033 75.9935 144.033 74.6413C144.033 73.6579 143.757 72.8589 143.204 72.2443C142.65 71.5682 141.513 70.9229 139.792 70.3082C138.133 69.6936 135.613 69.079 132.233 68.4644C129.037 67.7268 126.24 66.7742 123.843 65.6064C121.446 64.3772 119.602 62.8099 118.311 60.9046C117.021 58.9378 116.375 56.5715 116.375 53.8057C116.375 51.3473 117.174 48.981 118.772 46.7069C120.37 44.4328 122.706 42.5889 125.779 41.1753C128.852 39.7002 132.632 38.9627 137.119 38.9627C140.684 38.9627 143.757 39.3929 146.338 40.2534C148.981 41.0524 151.194 42.0972 152.976 43.3879C154.82 44.6786 156.203 46.0001 157.125 47.3522C158.047 48.7044 158.538 49.9336 158.6 51.0399C158.661 51.6546 158.477 52.2077 158.047 52.6994C157.616 53.1296 157.125 53.3448 156.571 53.3448H146.983C146.738 53.3448 146.492 53.314 146.246 53.2526C146 53.1296 145.785 53.0067 145.601 52.8838C144.863 52.515 144.125 52.0233 143.388 51.4087C142.65 50.7941 141.79 50.2409 140.807 49.7492C139.823 49.2575 138.594 49.0117 137.119 49.0117C135.459 49.0117 134.169 49.3805 133.247 50.118C132.325 50.8556 131.864 51.8082 131.864 52.976C131.864 53.775 132.11 54.5125 132.601 55.1886C133.155 55.8647 134.23 56.4793 135.828 57.0325C137.488 57.5856 140.038 58.2003 143.48 58.8763C147.721 59.5524 151.101 60.6587 153.621 62.1953C156.141 63.6704 157.924 65.422 158.969 67.4503C160.013 69.417 160.536 71.5068 160.536 73.7194C160.536 76.6695 159.645 79.2817 157.862 81.5558C156.141 83.8299 153.56 85.6123 150.118 86.903C146.676 88.1322 142.497 88.7468 137.58 88.7468Z" fill="white"/>
<path d="M77.8532 88.7468C74.5343 88.7468 71.5534 88.1322 68.9105 86.903C66.3291 85.6123 64.2701 83.8913 62.7336 81.7402C61.197 79.589 60.4288 77.1612 60.4288 74.4569C60.4288 70.0931 62.2112 66.6513 65.776 64.1313C69.3407 61.5499 74.0733 59.7983 79.9736 58.8763L91.4978 57.1247V55.834C91.4978 53.6213 91.0368 51.9311 90.1149 50.7634C89.1929 49.5956 87.5027 49.0117 85.0443 49.0117C83.3233 49.0117 81.9097 49.3497 80.8034 50.0258C79.7585 50.7019 78.9288 51.6238 78.3142 52.7916C77.761 53.5906 76.9928 53.9901 76.0094 53.9901H65.6838C65.0077 53.9901 64.4853 53.8057 64.1165 53.437C63.7477 53.0067 63.5941 52.515 63.6555 51.9619C63.6555 50.8556 64.055 49.5956 64.854 48.182C65.7145 46.7069 67.0052 45.2625 68.7261 43.8489C70.4471 42.4353 72.6597 41.2675 75.364 40.3456C78.0683 39.4236 81.3258 38.9627 85.1364 38.9627C89.1315 38.9627 92.5426 39.4236 95.3699 40.3456C98.1971 41.2675 100.471 42.5582 102.192 44.2177C103.975 45.8771 105.296 47.8439 106.156 50.118C107.017 52.3306 107.447 54.7891 107.447 57.4934V85.5201C107.447 86.1961 107.201 86.7493 106.71 87.1795C106.279 87.6098 105.757 87.8249 105.142 87.8249H94.4479C93.7718 87.8249 93.2187 87.6098 92.7885 87.1795C92.3582 86.7493 92.1431 86.1961 92.1431 85.5201V82.2933C91.3441 83.4611 90.2685 84.5367 88.9164 85.5201C87.5642 86.5035 85.9662 87.2717 84.1223 87.8249C82.3399 88.4395 80.2502 88.7468 77.8532 88.7468ZM82.1863 78.2368C83.9687 78.2368 85.5667 77.8681 86.9803 77.1305C88.4554 76.3315 89.5924 75.133 90.3914 73.535C91.2519 71.8755 91.6821 69.8165 91.6821 67.3581V66.0674L83.8457 67.4503C80.957 67.942 78.8366 68.7102 77.4844 69.7551C76.1937 70.7385 75.5484 71.9063 75.5484 73.2584C75.5484 74.3033 75.8557 75.1945 76.4703 75.932C77.0849 76.6695 77.8839 77.2534 78.8673 77.6837C79.8507 78.0524 80.957 78.2368 82.1863 78.2368Z" fill="white"/>
<path d="M31.02 88.9005C30.3439 88.9005 29.7907 88.6854 29.3605 88.2551C28.9303 87.8249 28.7151 87.2717 28.7151 86.5957V38.8398H12.3048C11.6287 38.8398 11.0756 38.6246 10.6453 38.1944C10.2151 37.7027 10 37.1496 10 36.5349V26.6703C10 25.9942 10.2151 25.4411 10.6453 25.0108C11.0756 24.5806 11.6287 24.3655 12.3048 24.3655H61.9046C62.5807 24.3655 63.1338 24.5806 63.564 25.0108C63.9943 25.4411 64.2094 25.9942 64.2094 26.6703V36.5349C64.2094 37.1496 63.9943 37.7027 63.564 38.1944C63.1338 38.6246 62.5807 38.8398 61.9046 38.8398H45.4942V86.5957C45.4942 87.2717 45.2791 87.8249 44.8489 88.2551C44.4187 88.6854 43.8655 88.9005 43.1894 88.9005H31.02Z" fill="white"/>
<g filter="url(#filter2_d_38_28)">
<path d="M250.377 89.8224C244.846 89.8224 239.99 88.9312 235.811 87.1488C231.693 85.305 228.497 82.5084 226.223 78.7593C223.949 74.9486 222.812 70.1239 222.812 64.285L222.812 43.5723C222.812 42.8962 223.027 42.3431 223.457 41.9129C223.887 41.4826 224.44 41.2675 225.117 41.2675H237.009C237.686 41.2675 238.239 41.4826 238.669 41.9129C239.099 42.3431 239.314 42.8962 239.314 43.5723L239.314 64.1928C239.314 68.1878 240.267 71.1994 242.172 73.2277C244.139 75.1945 246.874 76.1779 250.377 76.1779C253.819 76.1779 256.493 75.1945 258.398 73.2277C260.365 71.1994 261.348 68.1878 261.348 64.1928V26.6703C261.348 25.9942 261.564 25.4411 261.994 25.0108C262.485 24.5806 263.039 24.3655 263.653 24.3655H275.638C276.253 24.3655 276.775 24.5806 277.206 25.0108C277.697 25.4411 277.943 25.9942 277.943 26.6703V64.285C277.943 70.1239 276.806 74.9486 274.532 78.7593C272.258 82.5084 269.062 85.305 264.944 87.1488C260.826 88.9312 255.97 89.8224 250.377 89.8224Z" fill="#20E6C3"/>
<path d="M267.078 13.5C268.233 11.5 271.12 11.5 272.275 13.5L282.381 31.0054C283.536 33.0054 282.093 35.5054 279.783 35.5054H259.57C257.26 35.5054 255.817 33.0054 256.972 31.0054L267.078 13.5Z" fill="#20E6C3"/>
</g>
</g>
<defs>
<filter id="filter0_d_38_28" x="0" y="12" width="348.228" height="113.649" filterUnits="userSpaceOnUse" color-interpolation-filters="sRGB">
<feFlood flood-opacity="0" result="BackgroundImageFix"/>
<feColorMatrix in="SourceAlpha" type="matrix" values="0 0 0 0 0 0 0 0 0 0 0 0 0 0 0 0 0 0 127 0" result="hardAlpha"/>
<feOffset dy="10"/>
<feGaussianBlur stdDeviation="5"/>
<feComposite in2="hardAlpha" operator="out"/>
<feColorMatrix type="matrix" values="0 0 0 0 0 0 0 0 0 0 0 0 0 0 0 0 0 0 0.1 0"/>
<feBlend mode="normal" in2="BackgroundImageFix" result="effect1_dropShadow_38_28"/>
<feBlend mode="normal" in="SourceGraphic" in2="effect1_dropShadow_38_28" result="shape"/>
</filter>
<filter id="filter1_d_38_28" x="277.181" y="27.27" width="73.0466" height="90.3788" filterUnits="userSpaceOnUse" color-interpolation-filters="sRGB">
<feFlood flood-opacity="0" result="BackgroundImageFix"/>
<feColorMatrix in="SourceAlpha" type="matrix" values="0 0 0 0 0 0 0 0 0 0 0 0 0 0 0 0 0 0 127 0" result="hardAlpha"/>
<feOffset/>
<feGaussianBlur stdDeviation="6"/>
<feComposite in2="hardAlpha" operator="out"/>
<feColorMatrix type="matrix" values="0 0 0 0 0.12549 0 0 0 0 0.901961 0 0 0 0 0.764706 0 0 0 0.25 0"/>
<feBlend mode="normal" in2="BackgroundImageFix" result="effect1_dropShadow_38_28"/>
<feBlend mode="normal" in="SourceGraphic" in2="effect1_dropShadow_38_28" result="shape"/>
</filter>
<filter id="filter2_d_38_28" x="210.812" y="0" width="83.976" height="101.822" filterUnits="userSpaceOnUse" color-interpolation-filters="sRGB">
<feFlood flood-opacity="0" result="BackgroundImageFix"/>
<feColorMatrix in="SourceAlpha" type="matrix" values="0 0 0 0 0 0 0 0 0 0 0 0 0 0 0 0 0 0 127 0" result="hardAlpha"/>
<feOffset/>
<feGaussianBlur stdDeviation="6"/>
<feComposite in2="hardAlpha" operator="out"/>
<feColorMatrix type="matrix" values="0 0 0 0 0.12549 0 0 0 0 0.901961 0 0 0 0 0.764706 0 0 0 0.25 0"/>
<feBlend mode="normal" in2="BackgroundImageFix" result="effect1_dropShadow_38_28"/>
<feBlend mode="normal" in="SourceGraphic" in2="effect1_dropShadow_38_28" result="shape"/>
</filter>
</defs>
</svg>
