<svg width="29" height="22" viewBox="0 0 29 22" fill="none" xmlns="http://www.w3.org/2000/svg">
<path d="M14.1159 6.48298C15.1369 6.48298 16.1161 6.93833 16.8381 7.74886C17.56 8.55938 17.9657 9.6587 17.9657 10.805C17.9657 11.9512 17.56 13.0505 16.8381 13.8611C16.1161 14.6716 15.1369 15.1269 14.1159 15.1269C13.0948 15.1269 12.1156 14.6716 11.3937 13.8611C10.6717 13.0505 10.2661 11.9512 10.2661 10.805C10.2661 9.6587 10.6717 8.55938 11.3937 7.74886C12.1156 6.93833 13.0948 6.48298 14.1159 6.48298ZM14.1159 0C20.5322 0 26.0117 4.48046 28.2317 10.805C26.0117 17.1295 20.5322 21.6099 14.1159 21.6099C7.69956 21.6099 2.22004 17.1295 0 10.805C2.22004 4.48046 7.69956 0 14.1159 0ZM2.79751 10.805C3.83471 13.1825 5.44527 15.1856 7.44609 16.5867C9.44692 17.9878 11.7577 18.7305 14.1159 18.7305C16.474 18.7305 18.7848 17.9878 20.7856 16.5867C22.7865 15.1856 24.397 13.1825 25.4342 10.805C24.397 8.42743 22.7865 6.42427 20.7856 5.02322C18.7848 3.62217 16.474 2.87942 14.1159 2.87942C11.7577 2.87942 9.44692 3.62217 7.44609 5.02322C5.44527 6.42427 3.83471 8.42743 2.79751 10.805Z" fill="#339989"/>
</svg>
