<svg width="36" height="43" viewBox="0 0 36 43" fill="none" xmlns="http://www.w3.org/2000/svg">
<path d="M21.3191 41.0268C20.2865 41.6394 19.106 41.9633 17.9029 41.9643C16.6998 41.9632 15.5195 41.6391 14.4871 41.0266C13.4547 40.414 12.6086 39.5357 12.0386 38.4848C12.0118 38.4344 11.9985 38.3779 12.0001 38.3209C12.0018 38.2638 12.0183 38.2082 12.0481 38.1594C12.0778 38.1106 12.1198 38.0702 12.17 38.0423C12.2201 38.0144 12.2767 37.9998 12.3342 38H23.4732C23.5306 37.9999 23.5871 38.0146 23.6371 38.0426C23.6872 38.0706 23.729 38.111 23.7587 38.1598C23.7884 38.2085 23.8048 38.2641 23.8064 38.3211C23.808 38.378 23.7948 38.4344 23.7679 38.4848C23.1979 39.5358 22.3517 40.4142 21.3191 41.0268Z" stroke="#339989" stroke-width="2"/>
<path d="M18 1C20.6002 1 22.8186 2.76893 23.75 5.29785C25.7217 6.15961 27.282 7.32077 28.4639 8.85352L28.7725 9.27344C30.2637 11.4163 30.9805 14.1435 30.9805 17.3105C30.9805 20.3773 31.2556 22.1272 31.7021 23.3486C32.1412 24.5493 32.7662 25.3097 33.6875 26.415L34.0938 26.9043L34.0947 26.9053C34.5745 27.4801 34.8791 28.1802 34.9707 28.9229C35.0622 29.6648 34.937 30.4167 34.6113 31.0898C33.9204 32.5225 32.4715 33.3906 30.8643 33.3906H5.14551C3.53622 33.3906 2.07749 32.5251 1.38672 31.084C1.06191 30.4105 0.937852 29.6587 1.03027 28.917C1.12235 28.1781 1.42491 27.4818 1.90137 26.9092H1.90039C2.0422 26.7363 2.18174 26.5697 2.31348 26.4121C3.23544 25.3082 3.86103 24.549 4.2998 23.3486C4.74621 22.1272 5.02148 20.376 5.02148 17.3076C5.02153 14.3514 5.61824 11.8236 6.89844 9.75977C8.12042 7.79009 9.92033 6.31696 12.25 5.2959C13.1812 2.76891 15.3997 1.00009 18 1Z" stroke="#339989" stroke-width="2"/>
</svg>
