<svg width="36" height="40" viewBox="0 0 36 40" fill="none" xmlns="http://www.w3.org/2000/svg">
<path d="M31.25 33.3398C31.0104 34.7598 30.4562 36.0196 29.5859 37.1357C28.63 38.3618 27.2893 39.001 25.4258 39H25.4248C24.0734 39 23.0002 38.5331 22.1309 37.5938C21.2543 36.6466 20.7988 35.4579 20.7998 33.9551V33.9541C20.7998 33.3597 20.8892 32.7898 21.0664 32.2402C21.1715 31.9145 21.2798 31.609 21.3906 31.3242L31.25 33.3398ZM14.6094 22.2334C14.72 22.5176 14.8286 22.8225 14.9336 23.1484C15.1111 23.6998 15.2002 24.2701 15.2002 24.8633C15.2002 26.3663 14.7439 27.5555 13.8672 28.5029C12.9977 29.4423 11.924 29.9091 10.5752 29.9092C8.71116 29.9092 7.35897 29.2696 6.3877 28.04C5.50753 26.9257 4.94706 25.6677 4.70508 24.25L14.6094 22.2334ZM27.9004 10.0908C29.8867 10.0909 31.5367 10.9481 32.9004 12.7988C34.2789 14.6697 35 17.0478 35 20C35 22.0177 34.7681 23.7409 34.3242 25.1846C33.9717 26.3312 33.633 27.2657 33.3135 28L21.8135 25.6777C21.5751 24.9753 21.3551 24.1919 21.1582 23.3242C20.9215 22.2811 20.801 21.1738 20.7998 20C20.7998 17.4899 21.4605 15.1812 22.7871 13.0527C23.9643 11.1641 25.5118 10.2148 27.4971 10.1025L27.9004 10.0908ZM8.09961 1C10.281 1 11.9592 1.94622 13.2148 3.96191C14.5413 6.0914 15.2012 8.39988 15.2002 10.9082V10.9092C15.2002 12.0827 15.0795 13.1897 14.8418 14.2324C14.6439 15.1004 14.4225 15.884 14.1846 16.5869L2.68555 18.9092C2.36585 18.1741 2.02837 17.2387 1.67578 16.0928C1.23209 14.6506 1.00001 12.928 1 10.9092C1 7.95567 1.72115 5.5769 3.09961 3.70605C4.3782 1.97087 5.90841 1.10965 7.73145 1.00977L8.09961 1Z" stroke="#339989" stroke-width="2"/>
</svg>
